<svg xmlns="http://www.w3.org/2000/svg" viewBox="0 0 149.27 121.88"><title>Logo Personare vertical</title><path fill="#b31983" d="M62.71,49.53c.53-1.54,1.18-3.04,1.97-4.47-3.95-3.01-6.51-7.76-6.51-13.1,0-9.08,7.38-16.46,16.46-16.46s16.46,7.38,16.46,16.46c0,5.34-2.56,10.09-6.51,13.1,.78,1.43,1.44,2.93,1.97,4.47,5.62-3.83,9.32-10.27,9.32-17.57,0-11.71-9.53-21.24-21.24-21.24s-21.24,9.53-21.24,21.24c0,7.3,3.7,13.75,9.32,17.57Z"></path><path fill="#73308a" d="M75.61,60.54c-.99,8.13-7.94,14.46-16.34,14.46-9.08,0-16.46-7.38-16.46-16.46s7.38-16.46,16.46-16.46c2.27,0,4.44,.46,6.41,1.3,.88-1.37,1.89-2.67,3-3.87-2.84-1.41-6.03-2.21-9.41-2.21-11.71,0-21.24,9.53-21.24,21.24s9.53,21.24,21.24,21.24,20.48-8.79,21.19-19.86c-1.61,.36-3.23,.57-4.86,.63Z"></path><path fill="#f93549" d="M90,37.29c-3.38,0-6.57,.8-9.41,2.21,1.11,1.2,2.11,2.5,3,3.87,1.97-.84,4.14-1.3,6.41-1.3,9.08,0,16.46,7.38,16.46,16.46s-7.38,16.46-16.46,16.46c-8.4,0-15.34-6.32-16.34-14.46-1.63-.06-3.25-.27-4.86-.63,.71,11.07,9.94,19.86,21.19,19.86s21.24-9.53,21.24-21.24-9.53-21.24-21.24-21.24Z"></path><path fill="#ee4043" d="M59.27,52.6c.88,0,1.71,.2,2.46,.55,.65-3.22,1.85-6.32,3.54-9.12,1.62-2.68,3.71-5.09,6.11-7.12-1.11-.73-1.97-1.83-2.39-3.11-.67,.57-1.33,1.17-1.96,1.8-4.73,4.73-7.79,10.67-8.92,17.12,.38-.08,.77-.12,1.16-.12Z"></path><path fill="#f93549" d="M112.51,35.6c-6.07-6.07-14.15-9.42-22.74-9.42-3.71,0-7.32,.63-10.72,1.83,.94,1.05,1.52,2.44,1.52,3.96,0,.07,0,.13,0,.2,2.88-1.02,5.98-1.58,9.21-1.58,15.3,0,27.75,12.45,27.75,27.75s-12.45,27.75-27.75,27.75c-13.54,0-24.84-9.75-27.26-22.59-.93,.61-2.04,.97-3.23,.97-.37,0-.74-.04-1.09-.11,1.19,6.29,4.23,12.08,8.85,16.71,6.07,6.07,14.15,9.42,22.74,9.42s16.66-3.34,22.74-9.42c6.07-6.07,9.42-14.15,9.42-22.74s-3.35-16.67-9.42-22.74Z"></path><path fill="#6d2c90" d="M77.89,36.91c2.4,2.03,4.49,4.43,6.11,7.12,1.69,2.8,2.89,5.9,3.54,9.12,.75-.34,1.58-.55,2.46-.55,.4,0,.79,.04,1.17,.12-1.13-6.45-4.2-12.39-8.92-17.12-.63-.63-1.29-1.23-1.96-1.8-.42,1.29-1.27,2.38-2.39,3.11Z"></path><path fill="#73308a" d="M90,64.47c-1.19,0-2.3-.36-3.23-.97-2.43,12.84-13.73,22.59-27.26,22.59-15.3,0-27.75-12.45-27.75-27.75s12.45-27.75,27.75-27.75c3.23,0,6.32,.56,9.2,1.58,0-.07,0-.13,0-.2,0-1.52,.58-2.91,1.52-3.96-3.4-1.2-7.01-1.83-10.72-1.83-8.59,0-16.67,3.35-22.74,9.42-6.07,6.07-9.42,14.15-9.42,22.74s3.35,16.67,9.42,22.74c6.07,6.07,14.15,9.42,22.74,9.42s16.67-3.34,22.74-9.42c4.63-4.63,7.67-10.42,8.85-16.71-.36,.07-.72,.11-1.1,.11Z"></path><path fill="#b3258e" d="M84.09,58.85c-3.1,1.13-6.27,1.71-9.46,1.71s-6.36-.58-9.46-1.71c-.07,1.36-.61,2.61-1.44,3.58,3.45,1.24,7.13,1.89,10.91,1.89s7.45-.65,10.91-1.89c-.84-.97-1.37-2.21-1.45-3.58Z"></path><path fill="#b31983" d="M97.37,9.42C91.3,3.34,83.22,0,74.63,0s-16.67,3.34-22.74,9.42c-6.07,6.07-9.42,14.15-9.42,22.74s3.35,16.67,9.42,22.74c.58,.58,1.18,1.12,1.79,1.65,.51-1.44,1.57-2.63,2.92-3.31-5.95-5.09-9.73-12.65-9.73-21.08,0-15.3,12.45-27.75,27.75-27.75s27.75,12.45,27.75,27.75c0,8.43-3.78,15.98-9.73,21.08,1.35,.68,2.41,1.87,2.92,3.31,.61-.53,1.21-1.07,1.79-1.65,6.07-6.07,9.42-14.15,9.42-22.74s-3.35-16.67-9.42-22.74Z"></path><path fill="#73308a" d="M65.17,58.85c-.17,3.12-2.74,5.62-5.9,5.62s-5.93-2.66-5.93-5.93,2.66-5.94,5.93-5.94c.88,0,1.71,.2,2.46,.55,.29-1.44,.7-2.86,1.21-4.24-1.14-.44-2.38-.68-3.67-.68-5.68,0-10.3,4.62-10.3,10.3s4.62,10.3,10.3,10.3c5.17,0,9.46-3.82,10.19-8.79-1.44-.28-2.87-.68-4.29-1.2Z"></path><path fill="#f93549" d="M90,48.23c-1.29,0-2.53,.24-3.67,.68,.51,1.38,.91,2.8,1.21,4.24,.75-.34,1.58-.55,2.46-.55,3.27,0,5.93,2.66,5.93,5.94s-2.66,5.93-5.93,5.93-5.73-2.5-5.9-5.62c-1.42,.52-2.85,.91-4.29,1.2,.73,4.97,5.02,8.79,10.19,8.79,5.68,0,10.3-4.62,10.3-10.3s-4.62-10.3-10.3-10.3Z"></path><path fill="#b31983" d="M68.22,40.01c.97-1.11,2.03-2.15,3.16-3.1-1.61-1.06-2.68-2.88-2.68-4.95,0-3.27,2.66-5.94,5.93-5.94s5.93,2.66,5.93,5.94c0,2.07-1.07,3.89-2.68,4.95,1.13,.95,2.18,1.99,3.16,3.1,2.37-1.89,3.89-4.8,3.89-8.05,0-5.68-4.62-10.3-10.3-10.3s-10.3,4.62-10.3,10.3c0,3.26,1.52,6.17,3.89,8.06Z"></path></svg>